<?xml version="1.0" encoding="UTF-8" standalone="no"?>
<!DOCTYPE svg PUBLIC "-//W3C//DTD SVG 1.1//EN" "http://www.w3.org/Graphics/SVG/1.1/DTD/svg11.dtd">
<svg xmlns="http://www.w3.org/2000/svg" version="1.1" viewBox="0 0 548 548">
<g stroke-width="2.0" fill="none" stroke-linecap="butt">
<path stroke="#b0ada9" vector-effect="non-scaling-stroke" d="
  M 151.25 280.96
  L 150.79 281.00"
/>
<path stroke="#8b898b" vector-effect="non-scaling-stroke" d="
  M 150.79 281.00
  Q 140.79 264.91 134.56 249.44
  Q 117.83 207.85 130.25 164.00
  Q 135.34 146.03 140.18 135.40
  C 140.23 135.29 140.25 135.18 140.22 135.09
  Q 140.14 134.82 139.94 135.19
  Q 125.41 160.83 120.63 188.85
  Q 118.89 199.03 119.03 208.75
  Q 119.39 233.44 128.81 254.94
  Q 138.25 276.45 150.53 296.48
  Q 159.82 311.64 166.76 327.99
  Q 175.20 347.89 166.69 367.69
  Q 163.48 375.15 157.18 380.00
  Q 150.61 385.07 143.25 385.41
  Q 135.07 385.79 127.89 380.38
  Q 127.41 380.02 127.25 380.02
  Q 126.85 380.03 127.46 380.54
  Q 141.18 391.98 158.10 385.23
  Q 170.76 380.17 177.91 368.60
  Q 178.33 367.92 177.97 368.57
  Q 171.96 379.70 161.55 385.56
  Q 153.47 390.11 143.96 391.52
  Q 134.58 392.90 125.04 390.36
  Q 118.81 388.71 113.79 384.70
  Q 107.62 379.77 108.37 372.90
  Q 108.81 368.88 112.07 364.30
  Q 114.84 360.41 118.51 357.25
  Q 118.93 356.89 118.42 357.22
  Q 108.66 363.59 102.47 373.46
  Q 95.45 384.67 98.49 396.26
  Q 100.43 403.65 105.91 409.64
  Q 111.11 415.33 118.69 418.81
  Q 124.19 421.34 126.25 422.04"
/>
<path stroke="#fce0c6" vector-effect="non-scaling-stroke" d="
  M 126.25 422.04
  Q 126.50 422.97 126.03 423.29
  C 125.84 423.42 125.48 423.38 125.13 423.17
  Q 122.79 421.78 120.05 421.48
  C 119.77 421.45 119.47 421.31 119.20 421.08
  Q 118.01 420.06 116.70 421.00
  C 116.48 421.16 116.35 421.46 116.36 421.81
  L 116.46 424.75"
/>
<path stroke="#8b898b" vector-effect="non-scaling-stroke" d="
  M 116.46 424.75
  Q 103.40 417.46 94.94 406.06
  Q 83.78 391.03 84.33 372.84
  Q 84.59 363.95 87.96 355.53
  Q 91.33 347.09 97.06 340.06
  Q 97.25 339.84 97.20 339.69
  C 97.16 339.55 96.94 339.55 96.79 339.69
  Q 84.73 350.15 77.31 362.56
  Q 61.82 388.48 67.31 419.14
  Q 69.53 431.56 75.71 442.55
  Q 87.00 462.61 106.19 475.31
  Q 136.69 495.50 173.50 493.30
  Q 202.84 491.55 227.82 476.33
  Q 252.54 461.28 266.06 436.42
  Q 270.83 427.65 273.76 418.00
  Q 280.26 396.66 278.02 374.00
  Q 277.77 371.50 277.71 369.00"
/>
<path stroke="#fce0c6" vector-effect="non-scaling-stroke" d="
  M 277.71 369.00
  L 277.46 367.00"
/>
<path stroke="#fce0c6" vector-effect="non-scaling-stroke" d="
  M 277.46 367.00
  Q 276.42 365.09 276.29 362.75"
/>
<path stroke="#8b898b" vector-effect="non-scaling-stroke" d="
  M 276.29 362.75
  Q 274.49 338.79 264.60 316.92
  Q 259.91 306.53 254.21 295.97
  Q 253.92 295.42 254.53 295.52
  Q 272.19 298.41 276.71 282.75"
/>
<path stroke="#fdcfae" vector-effect="non-scaling-stroke" d="
  M 276.71 282.75
  Q 280.12 271.04 271.81 263.69
  Q 264.58 257.30 255.00 260.56
  Q 253.37 261.12 251.29 262.38
  Q 249.51 263.45 247.75 264.54"
/>
<path stroke="#8b898b" vector-effect="non-scaling-stroke" d="
  M 247.75 264.54
  Q 232.01 247.22 222.46 225.87
  Q 219.75 219.81 219.25 214.25
  Q 218.58 206.72 222.86 201.71
  Q 226.49 197.47 233.34 195.75
  Q 243.71 193.16 253.06 198.94
  Q 262.91 205.02 269.60 215.12
  Q 270.53 216.53 272.20 216.25
  Q 276.09 215.60 280.67 213.39
  Q 308.21 200.08 312.59 168.89
  C 312.72 167.95 313.24 167.11 314.02 166.58
  Q 328.33 156.81 335.60 140.46
  Q 338.11 134.80 338.15 134.73
  Q 340.83 129.02 341.69 126.94
  Q 344.80 119.39 349.51 112.58
  Q 350.56 111.07 352.26 110.38
  Q 356.51 108.67 361.21 108.30
  Q 364.65 108.03 370.30 108.33
  Q 389.67 109.35 403.37 122.15
  Q 408.70 127.13 412.94 134.32
  Q 416.90 141.04 419.56 148.44
  Q 426.94 168.93 425.41 190.52
  Q 425.10 194.98 423.96 199.38
  Q 422.64 204.52 421.19 207.94
  Q 419.52 211.88 419.56 215.63
  Q 419.60 218.43 421.49 223.01
  Q 429.22 241.66 441.45 257.82
  Q 443.26 260.22 442.31 263.07
  Q 439.55 271.43 429.87 274.73
  Q 419.88 278.14 422.41 287.67
  Q 422.75 288.94 424.43 291.30
  Q 426.00 293.51 426.46 296.25"
/>
<path stroke="#fbcdaf" vector-effect="non-scaling-stroke" d="
  M 426.46 296.25
  Q 421.31 295.35 416.19 297.44
  Q 409.62 300.11 406.21 301.75"
/>
<path stroke="#fac8a6" vector-effect="non-scaling-stroke" d="
  M 406.21 301.75
  Q 396.51 306.22 386.32 306.07
  Q 384.84 306.05 385.92 307.05
  L 390.25 311.04"
/>
<path stroke="#fdd0b0" vector-effect="non-scaling-stroke" d="
  M 390.25 311.04
  Q 398.63 318.37 408.97 322.45
  Q 409.59 322.69 410.59 322.70
  Q 411.44 322.71 412.25 322.96"
/>
<path stroke="#8b898b" vector-effect="non-scaling-stroke" d="
  M 412.25 322.96
  Q 408.48 323.84 408.19 327.94
  Q 407.82 333.11 408.65 337.02
  Q 409.37 340.40 409.51 343.83
  Q 409.66 347.76 408.65 350.56
  Q 406.77 355.72 401.92 358.19
  Q 399.03 359.66 394.85 359.89
  Q 391.18 360.09 387.50 359.51
  Q 361.48 355.43 337.19 345.31
  Q 334.16 344.05 333.61 346.65
  Q 333.27 348.23 333.24 348.33
  Q 322.89 381.71 313.54 415.40
  Q 309.66 429.39 304.50 452.75
  Q 297.04 486.54 305.70 518.70
  Q 306.12 520.26 305.86 518.52
  Q 302.62 497.11 306.22 475.79
  Q 307.40 468.77 310.31 464.31
  Q 313.84 458.91 319.25 457.25
  Q 328.24 454.50 338.07 457.66
  Q 358.37 464.19 370.69 481.56
  Q 382.00 497.51 389.31 518.19
  Q 390.31 521.00 392.43 525.89
  C 392.54 526.13 392.74 526.28 392.89 526.22
  Q 393.09 526.14 393.04 525.75
  Q 391.56 512.24 387.23 499.38
  Q 383.86 489.34 376.56 478.19
  Q 370.15 468.37 360.69 462.06
  Q 351.14 455.69 339.73 451.55
  Q 325.69 446.46 312.00 441.01
  C 311.61 440.86 311.39 440.43 311.50 440.02
  Q 320.88 404.28 332.80 369.32
  Q 332.81 369.28 333.57 366.65
  Q 334.15 364.61 335.32 362.89
  Q 336.71 360.84 339.51 359.64
  Q 347.99 356.00 357.19 358.06
  Q 374.38 361.91 389.00 364.25
  Q 394.31 365.10 398.73 364.77
  Q 403.97 364.37 407.75 361.74
  Q 413.63 357.65 414.57 350.07
  Q 414.83 348.02 414.54 344.43
  Q 414.20 340.15 413.94 338.81
  Q 413.07 334.34 414.07 329.93
  C 414.14 329.62 414.33 329.34 414.61 329.16
  Q 416.46 327.94 418.34 326.75
  Q 421.19 324.95 422.03 323.56
  Q 423.42 321.27 422.95 318.26
  Q 422.34 314.46 419.99 310.84
  C 419.84 310.61 419.93 310.29 420.19 310.19
  Q 427.68 307.13 430.86 300.05
  Q 432.01 297.51 431.32 295.32
  Q 430.62 293.09 428.81 290.94
  Q 425.21 286.65 427.40 282.57
  Q 428.61 280.31 432.63 278.07
  Q 435.71 276.35 438.83 274.73
  Q 443.25 272.43 445.19 269.44
  Q 447.51 265.84 446.69 261.80
  Q 446.26 259.68 443.38 255.22
  Q 435.62 243.23 428.44 226.56
  Q 426.22 221.43 425.96 216.72
  Q 425.79 213.65 427.63 206.96
  Q 430.30 197.26 432.19 186.67
  C 432.33 185.89 432.70 185.18 433.25 184.62
  Q 450.46 167.16 455.72 143.04
  Q 461.25 117.67 450.59 95.53
  Q 446.28 86.56 439.43 79.01
  Q 428.44 66.88 413.16 59.86
  Q 395.68 51.83 380.69 50.06
  Q 363.65 48.06 356.50 46.25
  Q 344.65 43.26 335.05 35.74
  Q 329.75 31.60 324.50 30.25
  Q 317.61 28.48 307.99 28.14
  Q 284.95 27.33 262.50 31.80
  Q 252.03 33.89 243.10 36.59
  Q 202.46 48.87 175.81 81.31
  Q 148.36 114.73 136.82 157.73
  Q 134.11 167.82 132.68 177.29
  Q 124.44 231.98 151.25 280.96"
/>
<path stroke="#895c3d" vector-effect="non-scaling-stroke" d="
  M 412.25 322.96
  Q 418.67 322.02 417.85 315.57
  Q 417.23 310.67 412.50 309.46"
/>
<path stroke="#865433" vector-effect="non-scaling-stroke" d="
  M 412.50 309.46
  L 412.50 309.04"
/>
<path stroke="#88593b" vector-effect="non-scaling-stroke" d="
  M 412.50 309.04
  Q 422.51 305.93 426.46 296.25"
/>
<path stroke="#895b3a" vector-effect="non-scaling-stroke" d="
  M 247.75 264.54
  Q 241.74 272.46 244.75 282.04"
/>
<path stroke="#8b898b" vector-effect="non-scaling-stroke" d="
  M 244.75 282.04
  Q 247.38 291.99 256.69 293.81
  Q 262.14 294.88 268.25 291.46"
/>
<path stroke="#895b3a" vector-effect="non-scaling-stroke" d="
  M 268.25 291.46
  Q 274.08 288.67 276.71 282.75"
/>
<path stroke="#896c53" vector-effect="non-scaling-stroke" d="
  M 276.29 362.75
  L 275.71 374.75"
/>
<path stroke="#895c3d" vector-effect="non-scaling-stroke" d="
  M 275.71 374.75
  Q 272.81 398.06 260.64 417.47
  Q 255.41 425.81 248.36 433.20
  Q 236.59 445.55 221.56 454.06
  Q 184.94 474.79 142.81 469.69
  Q 125.74 467.62 108.00 459.04"
/>
<path stroke="#3d3935" vector-effect="non-scaling-stroke" d="
  M 108.00 459.04
  Q 100.38 455.54 107.71 459.50"
/>
<path stroke="#895c3d" vector-effect="non-scaling-stroke" d="
  M 107.71 459.50
  Q 124.49 470.41 143.70 475.06
  Q 153.24 477.37 163.46 477.75
  Q 197.53 479.02 226.74 462.05
  Q 235.61 456.89 242.98 450.41
  Q 273.32 423.75 277.00 381.75
  Q 277.40 377.18 277.04 370.25"
/>
<path stroke="#896c53" vector-effect="non-scaling-stroke" d="
  M 277.04 370.25
  L 277.04 370.00"
/>
<path stroke="#896c53" vector-effect="non-scaling-stroke" d="
  M 277.04 370.00
  L 277.71 369.00"
/>
<path stroke="#896c53" vector-effect="non-scaling-stroke" d="
  M 116.46 424.75
  Q 144.40 439.65 175.50 432.29"
/>
<path stroke="#895c3d" vector-effect="non-scaling-stroke" d="
  M 175.50 432.29
  Q 200.08 427.09 216.69 409.69
  Q 235.16 390.32 231.99 364.38
  Q 231.04 356.65 227.81 348.43
  Q 224.78 340.70 220.42 333.57
  Q 214.93 324.60 206.69 314.56
  Q 186.14 289.52 166.50 269.21"
/>
<path stroke="#3d3935" vector-effect="non-scaling-stroke" d="
  M 166.50 269.21
  Q 163.83 265.91 160.96 262.79
  Q 159.87 261.60 160.86 262.93
  Q 163.37 266.28 166.04 269.50"
/>
<path stroke="#895c3d" vector-effect="non-scaling-stroke" d="
  M 166.04 269.50
  Q 185.48 293.61 200.94 314.56
  Q 210.36 327.34 216.22 342.31
  Q 220.40 352.97 221.12 361.61
  Q 222.89 382.73 208.94 399.19
  Q 191.22 420.08 162.50 424.54"
/>
<path stroke="#896c53" vector-effect="non-scaling-stroke" d="
  M 162.50 424.54
  Q 144.06 427.35 126.25 422.04"
/>
<path stroke="#3d3935" vector-effect="non-scaling-stroke" d="
  M 150.79 281.00
  Q 156.18 289.94 151.25 280.96"
/>
<path stroke="#fbb378" vector-effect="non-scaling-stroke" d="
  M 175.50 432.29
  Q 173.44 431.47 171.32 431.74
  Q 168.40 432.11 168.25 432.11
  Q 160.86 432.32 154.48 432.26
  C 153.72 432.25 153.10 431.67 153.05 430.91
  Q 152.84 427.46 154.50 427.25
  C 154.75 427.22 155.03 427.08 155.30 426.85
  L 156.61 425.79
  C 156.80 425.63 157.16 425.60 157.54 425.71
  Q 159.55 426.28 161.25 426.00
  Q 162.49 425.80 162.50 424.54"
/>
<path stroke="#af7f5b" vector-effect="non-scaling-stroke" d="
  M 107.71 459.50
  L 108.00 459.04"
/>
<path stroke="#fac38e" vector-effect="non-scaling-stroke" d="
  M 277.46 367.00
  Q 276.63 368.36 277.04 370.00"
/>
<path stroke="#fbb378" vector-effect="non-scaling-stroke" d="
  M 277.04 370.25
  Q 276.97 372.37 276.97 374.50
  Q 276.97 376.22 275.71 374.75"
/>
<path stroke="#fdcfae" vector-effect="non-scaling-stroke" d="
  M 268.25 291.46
  Q 267.74 291.12 266.69 291.44
  Q 257.51 294.21 250.54 287.88
  Q 250.42 287.77 248.21 285.87
  Q 246.43 284.35 245.56 282.44
  Q 245.28 281.81 244.75 282.04"
/>
<path stroke="#af805b" vector-effect="non-scaling-stroke" d="
  M 166.50 269.21
  L 166.04 269.50"
/>
<path stroke="#f79757" vector-effect="non-scaling-stroke" d="
  M 412.50 309.04
  L 406.21 301.75"
/>
<path stroke="#f89b58" vector-effect="non-scaling-stroke" d="
  M 412.50 309.46
  Q 402.56 310.95 392.50 310.75
  Q 391.36 310.73 390.25 311.04"
/>
<path stroke="#8b898b" vector-effect="non-scaling-stroke" d="
  M 413.35 195.57
  L 416.77 190.71
  C 417.15 190.18 416.97 189.41 416.38 189.03
  Q 409.20 184.41 401.56 180.44
  Q 393.25 176.13 386.50 175.50
  Q 379.42 174.84 373.81 176.81
  Q 358.47 182.21 343.17 192.22
  Q 342.75 192.50 343.20 192.29
  Q 357.26 185.69 372.54 185.14
  Q 380.98 184.83 388.28 186.94
  Q 395.99 189.18 402.93 193.50
  Q 407.32 196.24 411.96 196.25
  C 412.53 196.25 413.05 196.00 413.35 195.57"
/>
<path stroke="#8b898b" vector-effect="non-scaling-stroke" d="
  M 248.81 204.69
  Q 244.65 200.84 239.51 200.06
  Q 234.06 199.23 229.86 201.87
  Q 224.29 205.37 225.10 213.51
  Q 225.73 219.77 229.47 224.57
  Q 230.34 225.68 229.94 224.33
  Q 228.38 219.00 228.96 213.50
  Q 229.77 205.96 236.08 204.22
  Q 238.80 203.48 241.94 204.11
  Q 245.22 204.78 247.44 206.56
  Q 252.72 210.82 255.73 218.48
  Q 255.82 218.70 255.99 218.84
  Q 256.86 219.56 256.36 218.26
  Q 256.25 217.98 256.20 217.73
  Q 254.72 210.15 248.81 204.69"
/>
<path stroke="#8b898b" vector-effect="non-scaling-stroke" d="
  M 409.08 216.94
  Q 406.40 217.66 403.75 218.50
  Q 400.60 219.50 396.54 217.99
  Q 387.09 214.46 377.08 213.06
  Q 365.96 211.49 359.06 208.69
  Q 353.06 206.24 347.93 202.52
  Q 346.71 201.64 347.68 202.80
  Q 351.41 207.28 356.23 210.53
  Q 362.96 215.06 370.27 218.46
  Q 379.86 222.92 385.35 223.95
  Q 398.27 226.39 409.18 217.14
  Q 409.57 216.81 409.08 216.94"
/>
<path stroke="#fbccab" vector-effect="non-scaling-stroke" d="
  M 258.24 231.10
  Q 258.98 227.88 260.95 225.18
  Q 261.72 224.11 260.40 224.05
  Q 256.80 223.89 254.30 226.01
  Q 251.89 228.05 251.48 231.23
  Q 250.98 235.14 253.94 238.56
  Q 257.95 243.21 263.78 243.65
  Q 264.58 243.71 265.07 243.48
  Q 265.97 243.05 265.68 242.15
  Q 265.49 241.55 264.63 241.02
  Q 262.89 239.94 261.19 238.81
  Q 257.09 236.10 258.24 231.10"
/>
<path stroke="#8b898b" vector-effect="non-scaling-stroke" d="
  M 429.06 268.92
  Q 423.03 268.88 418.43 272.95
  Q 416.84 274.35 418.86 273.72
  Q 423.94 272.13 429.29 271.28
  Q 430.07 271.16 430.48 270.84
  Q 431.43 270.08 430.46 269.33
  Q 429.93 268.92 429.06 268.92"
/>
<path stroke="#fbccab" vector-effect="non-scaling-stroke" d="
  M 301.71 319.25
  Q 301.83 319.79 302.44 320.31
  Q 310.40 327.17 318.72 332.05
  Q 319.55 332.54 320.50 332.54"
/>
<path stroke="#919191" vector-effect="non-scaling-stroke" d="
  M 320.50 332.54
  Q 329.00 338.30 341.19 343.56
  Q 361.75 352.44 380.21 357.00"
/>
<path stroke="#b0ada9" vector-effect="non-scaling-stroke" d="
  M 380.21 357.00
  Q 380.83 357.65 382.00 357.46
  Q 382.42 357.39 382.05 357.18
  Q 381.23 356.72 380.29 356.75"
/>
<path stroke="#919191" vector-effect="non-scaling-stroke" d="
  M 380.29 356.75
  Q 350.12 346.28 322.79 329.75"
/>
<path stroke="#fbccab" vector-effect="non-scaling-stroke" d="
  M 322.79 329.75
  L 304.50 316.96"
/>
<path stroke="#919191" vector-effect="non-scaling-stroke" d="
  M 304.50 316.96
  Q 304.01 316.34 301.81 314.44
  Q 285.59 300.38 282.25 278.99
  Q 281.82 276.24 281.43 278.99
  Q 279.78 290.68 285.77 301.26
  Q 291.83 311.96 301.71 319.25"
/>
<path stroke="#8e5f3e" vector-effect="non-scaling-stroke" d="
  M 304.50 316.96
  Q 302.72 317.67 301.71 319.25"
/>
<path stroke="#8e5f3e" vector-effect="non-scaling-stroke" d="
  M 322.79 329.75
  Q 322.07 331.51 320.50 332.54"
/>
<path stroke="#43403c" vector-effect="non-scaling-stroke" d="
  M 380.29 356.75
  L 380.21 357.00"
/>
<path stroke="#3d3935" vector-effect="non-scaling-stroke" d="
  M 160.79 126.00
  Q 167.11 108.82 160.54 125.50"
/>
<path stroke="#885837" vector-effect="non-scaling-stroke" d="
  M 160.54 125.50
  Q 151.85 146.54 147.00 171.00
  Q 140.87 201.90 151.03 230.19
  Q 154.04 238.59 159.51 248.26
  Q 166.94 261.39 176.31 273.22
  Q 177.84 275.16 188.25 287.71
  Q 194.25 294.94 200.46 302.00"
/>
<path stroke="#895c3d" vector-effect="non-scaling-stroke" d="
  M 200.46 302.00
  Q 207.93 310.58 215.00 319.50
  Q 221.87 328.16 227.06 337.82
  Q 232.22 347.42 234.51 356.33
  Q 242.09 385.80 223.07 408.68
  Q 217.09 415.86 208.34 422.12
  Q 179.95 442.42 143.52 439.55
  Q 114.39 437.25 95.81 416.44
  Q 85.56 404.96 83.54 388.25"
/>
<path stroke="#896c53" vector-effect="non-scaling-stroke" d="
  M 83.54 388.25
  Q 82.97 379.44 83.00 373.75
  Q 83.00 373.41 82.86 373.32
  C 82.73 373.23 82.54 373.39 82.50 373.63
  L 80.46 388.00"
/>
<path stroke="#895c3d" vector-effect="non-scaling-stroke" d="
  M 80.46 388.00
  Q 78.96 409.91 91.75 426.25
  Q 106.44 445.02 130.71 451.16
  Q 139.46 453.37 147.75 453.75
  Q 189.00 455.64 221.31 430.31
  Q 234.04 420.34 242.04 405.00"
/>
<path stroke="#896c53" vector-effect="non-scaling-stroke" d="
  M 242.04 405.00
  Q 248.34 393.16 249.50 379.79"
/>
<path stroke="#895c3d" vector-effect="non-scaling-stroke" d="
  M 249.50 379.79
  Q 250.32 374.73 249.75 368.75
  Q 248.43 355.02 243.19 343.06
  Q 235.66 325.91 221.75 308.04
  Q 217.31 302.34 213.04 296.50"
/>
<path stroke="#885837" vector-effect="non-scaling-stroke" d="
  M 213.04 296.50
  Q 205.98 285.54 198.81 274.64
  Q 189.25 260.10 182.00 244.28
  Q 174.44 227.76 174.27 209.97
  Q 174.18 200.39 176.82 190.22
  Q 181.84 170.85 193.56 155.06
  Q 206.90 137.10 224.80 121.87
  Q 229.03 118.28 240.38 109.32
  Q 257.84 95.54 276.03 82.72
  Q 276.69 82.26 275.95 82.42
  Q 275.51 82.51 274.94 82.94
  Q 272.04 85.10 261.54 91.78
  Q 239.78 105.63 219.28 121.27
  Q 201.26 135.03 186.39 152.13
  Q 171.47 169.31 165.50 188.00
  Q 157.49 213.08 167.83 239.11
  Q 172.44 250.72 178.31 260.19
  Q 187.33 274.72 199.43 289.12
  Q 199.75 289.50 199.38 289.16
  Q 176.74 268.24 162.83 240.71
  Q 150.91 217.13 150.00 192.00
  Q 148.80 158.65 160.79 126.00"
/>
<path stroke="#fa9e5d" vector-effect="non-scaling-stroke" d="
  M 213.04 296.50
  L 212.03 299.36
  C 211.94 299.61 211.64 299.75 211.33 299.67
  Q 209.21 299.13 207.14 299.98
  Q 206.70 300.17 206.19 300.11
  Q 203.93 299.84 202.34 301.39
  C 202.14 301.58 201.83 301.63 201.56 301.50
  Q 200.64 301.08 200.46 302.00"
/>
<path stroke="#ad7b55" vector-effect="non-scaling-stroke" d="
  M 160.54 125.50
  Q 160.84 125.65 160.79 126.00"
/>
<path stroke="#fbb378" vector-effect="non-scaling-stroke" d="
  M 249.50 379.79
  Q 248.40 380.44 248.19 382.19
  Q 247.09 391.17 242.68 400.97
  Q 241.81 402.90 242.04 405.00"
/>
<path stroke="#fbb378" vector-effect="non-scaling-stroke" d="
  M 80.46 388.00
  Q 80.41 389.74 82.01 389.58
  Q 82.28 389.56 82.99 389.61
  Q 83.91 389.69 83.54 388.25"
/>
<path stroke="#3d3935" vector-effect="non-scaling-stroke" d="
  M 201.25 272.54
  L 206.70 280.78
  C 206.78 280.89 206.89 280.97 207.01 280.99
  Q 207.33 281.03 207.08 280.63
  Q 204.46 276.39 201.75 272.21"
/>
<path stroke="#88593b" vector-effect="non-scaling-stroke" d="
  M 201.75 272.21
  Q 195.06 260.33 191.34 247.23
  Q 188.29 236.50 189.00 227.75
  Q 190.43 210.09 199.69 194.59
  Q 204.38 186.75 211.90 178.79
  Q 223.85 166.16 239.06 156.81
  Q 261.20 143.21 283.75 132.96"
/>
<path stroke="#896c53" vector-effect="non-scaling-stroke" d="
  M 283.75 132.96
  Q 296.18 127.45 308.60 121.90
  Q 309.61 121.44 308.97 121.29
  Q 308.77 121.24 308.55 121.33
  Q 295.94 126.17 283.50 131.46"
/>
<path stroke="#88593b" vector-effect="non-scaling-stroke" d="
  M 283.50 131.46
  Q 265.13 138.56 247.44 147.19
  Q 231.66 154.89 217.51 165.29
  Q 209.10 171.47 200.94 180.69
  Q 188.23 195.03 185.69 213.49
  Q 185.44 215.30 185.44 213.75
  Q 185.40 183.86 204.71 161.48
  Q 216.26 148.09 229.69 138.19
  Q 253.21 120.85 280.31 105.06
  Q 281.61 104.31 282.20 103.66
  Q 282.62 103.19 282.05 103.48
  Q 258.22 115.78 235.38 129.84
  Q 211.96 144.26 196.25 164.75
  Q 176.10 191.03 180.98 223.22
  Q 182.32 232.10 186.16 242.48
  Q 192.01 258.29 201.25 272.54"
/>
<path stroke="#f9b077" vector-effect="non-scaling-stroke" d="
  M 283.50 131.46
  Q 283.91 132.14 283.75 132.96"
/>
<path stroke="#ad7c59" vector-effect="non-scaling-stroke" d="
  M 201.75 272.21
  L 201.25 272.54"
/>
<path stroke="#88593b" vector-effect="non-scaling-stroke" d="
  M 188.29 359.75
  Q 186.09 373.04 177.44 382.44
  Q 169.93 390.59 158.96 395.50"
/>
<path stroke="#895c3d" vector-effect="non-scaling-stroke" d="
  M 158.96 395.50
  Q 147.69 399.37 135.81 400.28
  Q 135.31 400.32 135.80 400.35
  Q 148.07 401.22 159.75 397.46"
/>
<path stroke="#88593b" vector-effect="non-scaling-stroke" d="
  M 159.75 397.46
  Q 178.04 391.15 185.19 372.94
  Q 187.86 366.12 188.75 359.79"
/>
<path stroke="#3d3935" vector-effect="non-scaling-stroke" d="
  M 188.75 359.79
  Q 190.38 347.83 188.29 359.75"
/>
<path stroke="#ad7c59" vector-effect="non-scaling-stroke" d="
  M 188.75 359.79
  L 188.29 359.75"
/>
<path stroke="#faa061" vector-effect="non-scaling-stroke" d="
  M 159.75 397.46
  Q 159.81 396.30 158.96 395.50"
/>
<path stroke="#1e1d1e" vector-effect="non-scaling-stroke" d="
  M 232.99 382.45
  Q 231.02 388.69 228.30 395.01
  Q 227.88 395.99 228.82 395.50
  Q 230.09 394.84 230.66 393.67
  Q 233.16 388.56 234.39 383.00
  Q 234.51 382.47 234.36 382.01
  Q 233.75 380.07 232.99 382.45"
/>
<path stroke="#88593b" vector-effect="non-scaling-stroke" d="
  M 111.59 404.42
  Q 119.52 411.29 129.74 413.79
  Q 147.68 418.16 165.38 412.98
  Q 179.90 408.74 192.13 399.85
  Q 193.19 399.08 192.30 399.62
  Q 171.71 412.18 147.50 413.00
  Q 127.59 413.68 112.13 403.89
  C 111.89 403.74 111.64 403.68 111.44 403.72
  Q 110.93 403.84 111.59 404.42"
/>
</g>
<path fill="#fefdfe" d="
  M 0.00 0.00
  Q 274.00 0.00 548.00 0.00
  Q 548.00 274.00 548.00 548.00
  Q 274.00 548.00 0.00 548.00
  Q 0.00 274.00 0.00 0.00
  Z
  M 151.25 280.96
  L 150.79 281.00
  Q 140.79 264.91 134.56 249.44
  Q 117.83 207.85 130.25 164.00
  Q 135.34 146.03 140.18 135.40
  C 140.23 135.29 140.25 135.18 140.22 135.09
  Q 140.14 134.82 139.94 135.19
  Q 125.41 160.83 120.63 188.85
  Q 118.89 199.03 119.03 208.75
  Q 119.39 233.44 128.81 254.94
  Q 138.25 276.45 150.53 296.48
  Q 159.82 311.64 166.76 327.99
  Q 175.20 347.89 166.69 367.69
  Q 163.48 375.15 157.18 380.00
  Q 150.61 385.07 143.25 385.41
  Q 135.07 385.79 127.89 380.38
  Q 127.41 380.02 127.25 380.02
  Q 126.85 380.03 127.46 380.54
  Q 141.18 391.98 158.10 385.23
  Q 170.76 380.17 177.91 368.60
  Q 178.33 367.92 177.97 368.57
  Q 171.96 379.70 161.55 385.56
  Q 153.47 390.11 143.96 391.52
  Q 134.58 392.90 125.04 390.36
  Q 118.81 388.71 113.79 384.70
  Q 107.62 379.77 108.37 372.90
  Q 108.81 368.88 112.07 364.30
  Q 114.84 360.41 118.51 357.25
  Q 118.93 356.89 118.42 357.22
  Q 108.66 363.59 102.47 373.46
  Q 95.45 384.67 98.49 396.26
  Q 100.43 403.65 105.91 409.64
  Q 111.11 415.33 118.69 418.81
  Q 124.19 421.34 126.25 422.04
  Q 126.50 422.97 126.03 423.29
  C 125.84 423.42 125.48 423.38 125.13 423.17
  Q 122.79 421.78 120.05 421.48
  C 119.77 421.45 119.47 421.31 119.20 421.08
  Q 118.01 420.06 116.70 421.00
  C 116.48 421.16 116.35 421.46 116.36 421.81
  L 116.46 424.75
  Q 103.40 417.46 94.94 406.06
  Q 83.78 391.03 84.33 372.84
  Q 84.59 363.95 87.96 355.53
  Q 91.33 347.09 97.06 340.06
  Q 97.25 339.84 97.20 339.69
  C 97.16 339.55 96.94 339.55 96.79 339.69
  Q 84.73 350.15 77.31 362.56
  Q 61.82 388.48 67.31 419.14
  Q 69.53 431.56 75.71 442.55
  Q 87.00 462.61 106.19 475.31
  Q 136.69 495.50 173.50 493.30
  Q 202.84 491.55 227.82 476.33
  Q 252.54 461.28 266.06 436.42
  Q 270.83 427.65 273.76 418.00
  Q 280.26 396.66 278.02 374.00
  Q 277.77 371.50 277.71 369.00
  L 277.46 367.00
  Q 276.42 365.09 276.29 362.75
  Q 274.49 338.79 264.60 316.92
  Q 259.91 306.53 254.21 295.97
  Q 253.92 295.42 254.53 295.52
  Q 272.19 298.41 276.71 282.75
  Q 280.12 271.04 271.81 263.69
  Q 264.58 257.30 255.00 260.56
  Q 253.37 261.12 251.29 262.38
  Q 249.51 263.45 247.75 264.54
  Q 232.01 247.22 222.46 225.87
  Q 219.75 219.81 219.25 214.25
  Q 218.58 206.72 222.86 201.71
  Q 226.49 197.47 233.34 195.75
  Q 243.71 193.16 253.06 198.94
  Q 262.91 205.02 269.60 215.12
  Q 270.53 216.53 272.20 216.25
  Q 276.09 215.60 280.67 213.39
  Q 308.21 200.08 312.59 168.89
  C 312.72 167.95 313.24 167.11 314.02 166.58
  Q 328.33 156.81 335.60 140.46
  Q 338.11 134.80 338.15 134.73
  Q 340.83 129.02 341.69 126.94
  Q 344.80 119.39 349.51 112.58
  Q 350.56 111.07 352.26 110.38
  Q 356.51 108.67 361.21 108.30
  Q 364.65 108.03 370.30 108.33
  Q 389.67 109.35 403.37 122.15
  Q 408.70 127.13 412.94 134.32
  Q 416.90 141.04 419.56 148.44
  Q 426.94 168.93 425.41 190.52
  Q 425.10 194.98 423.96 199.38
  Q 422.64 204.52 421.19 207.94
  Q 419.52 211.88 419.56 215.63
  Q 419.60 218.43 421.49 223.01
  Q 429.22 241.66 441.45 257.82
  Q 443.26 260.22 442.31 263.07
  Q 439.55 271.43 429.87 274.73
  Q 419.88 278.14 422.41 287.67
  Q 422.75 288.94 424.43 291.30
  Q 426.00 293.51 426.46 296.25
  Q 421.31 295.35 416.19 297.44
  Q 409.62 300.11 406.21 301.75
  Q 396.51 306.22 386.32 306.07
  Q 384.84 306.05 385.92 307.05
  L 390.25 311.04
  Q 398.63 318.37 408.97 322.45
  Q 409.59 322.69 410.59 322.70
  Q 411.44 322.71 412.25 322.96
  Q 408.48 323.84 408.19 327.94
  Q 407.82 333.11 408.65 337.02
  Q 409.37 340.40 409.51 343.83
  Q 409.66 347.76 408.65 350.56
  Q 406.77 355.72 401.92 358.19
  Q 399.03 359.66 394.85 359.89
  Q 391.18 360.09 387.50 359.51
  Q 361.48 355.43 337.19 345.31
  Q 334.16 344.05 333.61 346.65
  Q 333.27 348.23 333.24 348.33
  Q 322.89 381.71 313.54 415.40
  Q 309.66 429.39 304.50 452.75
  Q 297.04 486.54 305.70 518.70
  Q 306.12 520.26 305.86 518.52
  Q 302.62 497.11 306.22 475.79
  Q 307.40 468.77 310.31 464.31
  Q 313.84 458.91 319.25 457.25
  Q 328.24 454.50 338.07 457.66
  Q 358.37 464.19 370.69 481.56
  Q 382.00 497.51 389.31 518.19
  Q 390.31 521.00 392.43 525.89
  C 392.54 526.13 392.74 526.28 392.89 526.22
  Q 393.09 526.14 393.04 525.75
  Q 391.56 512.24 387.23 499.38
  Q 383.86 489.34 376.56 478.19
  Q 370.15 468.37 360.69 462.06
  Q 351.14 455.69 339.73 451.55
  Q 325.69 446.46 312.00 441.01
  C 311.61 440.86 311.39 440.43 311.50 440.02
  Q 320.88 404.28 332.80 369.32
  Q 332.81 369.28 333.57 366.65
  Q 334.15 364.61 335.32 362.89
  Q 336.71 360.84 339.51 359.64
  Q 347.99 356.00 357.19 358.06
  Q 374.38 361.91 389.00 364.25
  Q 394.31 365.10 398.73 364.77
  Q 403.97 364.37 407.75 361.74
  Q 413.63 357.65 414.57 350.07
  Q 414.83 348.02 414.54 344.43
  Q 414.20 340.15 413.94 338.81
  Q 413.07 334.34 414.07 329.93
  C 414.14 329.62 414.33 329.34 414.61 329.16
  Q 416.46 327.94 418.34 326.75
  Q 421.19 324.95 422.03 323.56
  Q 423.42 321.27 422.95 318.26
  Q 422.34 314.46 419.99 310.84
  C 419.84 310.61 419.93 310.29 420.19 310.19
  Q 427.68 307.13 430.86 300.05
  Q 432.01 297.51 431.32 295.32
  Q 430.62 293.09 428.81 290.94
  Q 425.21 286.65 427.40 282.57
  Q 428.61 280.31 432.63 278.07
  Q 435.71 276.35 438.83 274.73
  Q 443.25 272.43 445.19 269.44
  Q 447.51 265.84 446.69 261.80
  Q 446.26 259.68 443.38 255.22
  Q 435.62 243.23 428.44 226.56
  Q 426.22 221.43 425.96 216.72
  Q 425.79 213.65 427.63 206.96
  Q 430.30 197.26 432.19 186.67
  C 432.33 185.89 432.70 185.18 433.25 184.62
  Q 450.46 167.16 455.72 143.04
  Q 461.25 117.67 450.59 95.53
  Q 446.28 86.56 439.43 79.01
  Q 428.44 66.88 413.16 59.86
  Q 395.68 51.83 380.69 50.06
  Q 363.65 48.06 356.50 46.25
  Q 344.65 43.26 335.05 35.74
  Q 329.75 31.60 324.50 30.25
  Q 317.61 28.48 307.99 28.14
  Q 284.95 27.33 262.50 31.80
  Q 252.03 33.89 243.10 36.59
  Q 202.46 48.87 175.81 81.31
  Q 148.36 114.73 136.82 157.73
  Q 134.11 167.82 132.68 177.29
  Q 124.44 231.98 151.25 280.96
  Z
  M 413.35 195.57
  L 416.77 190.71
  C 417.15 190.18 416.97 189.41 416.38 189.03
  Q 409.20 184.41 401.56 180.44
  Q 393.25 176.13 386.50 175.50
  Q 379.42 174.84 373.81 176.81
  Q 358.47 182.21 343.17 192.22
  Q 342.75 192.50 343.20 192.29
  Q 357.26 185.69 372.54 185.14
  Q 380.98 184.83 388.28 186.94
  Q 395.99 189.18 402.93 193.50
  Q 407.32 196.24 411.96 196.25
  C 412.53 196.25 413.05 196.00 413.35 195.57
  Z
  M 248.81 204.69
  Q 244.65 200.84 239.51 200.06
  Q 234.06 199.23 229.86 201.87
  Q 224.29 205.37 225.10 213.51
  Q 225.73 219.77 229.47 224.57
  Q 230.34 225.68 229.94 224.33
  Q 228.38 219.00 228.96 213.50
  Q 229.77 205.96 236.08 204.22
  Q 238.80 203.48 241.94 204.11
  Q 245.22 204.78 247.44 206.56
  Q 252.72 210.82 255.73 218.48
  Q 255.82 218.70 255.99 218.84
  Q 256.86 219.56 256.36 218.26
  Q 256.25 217.98 256.20 217.73
  Q 254.72 210.15 248.81 204.69
  Z
  M 409.08 216.94
  Q 406.40 217.66 403.75 218.50
  Q 400.60 219.50 396.54 217.99
  Q 387.09 214.46 377.08 213.06
  Q 365.96 211.49 359.06 208.69
  Q 353.06 206.24 347.93 202.52
  Q 346.71 201.64 347.68 202.80
  Q 351.41 207.28 356.23 210.53
  Q 362.96 215.06 370.27 218.46
  Q 379.86 222.92 385.35 223.95
  Q 398.27 226.39 409.18 217.14
  Q 409.57 216.81 409.08 216.94
  Z
  M 258.24 231.10
  Q 258.98 227.88 260.95 225.18
  Q 261.72 224.11 260.40 224.05
  Q 256.80 223.89 254.30 226.01
  Q 251.89 228.05 251.48 231.23
  Q 250.98 235.14 253.94 238.56
  Q 257.95 243.21 263.78 243.65
  Q 264.58 243.71 265.07 243.48
  Q 265.97 243.05 265.68 242.15
  Q 265.49 241.55 264.63 241.02
  Q 262.89 239.94 261.19 238.81
  Q 257.09 236.10 258.24 231.10
  Z
  M 429.06 268.92
  Q 423.03 268.88 418.43 272.95
  Q 416.84 274.35 418.86 273.72
  Q 423.94 272.13 429.29 271.28
  Q 430.07 271.16 430.48 270.84
  Q 431.43 270.08 430.46 269.33
  Q 429.93 268.92 429.06 268.92
  Z
  M 301.71 319.25
  Q 301.83 319.79 302.44 320.31
  Q 310.40 327.17 318.72 332.05
  Q 319.55 332.54 320.50 332.54
  Q 329.00 338.30 341.19 343.56
  Q 361.75 352.44 380.21 357.00
  Q 380.83 357.65 382.00 357.46
  Q 382.42 357.39 382.05 357.18
  Q 381.23 356.72 380.29 356.75
  Q 350.12 346.28 322.79 329.75
  L 304.50 316.96
  Q 304.01 316.34 301.81 314.44
  Q 285.59 300.38 282.25 278.99
  Q 281.82 276.24 281.43 278.99
  Q 279.78 290.68 285.77 301.26
  Q 291.83 311.96 301.71 319.25
  Z"
/>
<path fill="#171517" d="
  M 412.25 322.96
  Q 418.67 322.02 417.85 315.57
  Q 417.23 310.67 412.50 309.46
  L 412.50 309.04
  Q 422.51 305.93 426.46 296.25
  Q 426.00 293.51 424.43 291.30
  Q 422.75 288.94 422.41 287.67
  Q 419.88 278.14 429.87 274.73
  Q 439.55 271.43 442.31 263.07
  Q 443.26 260.22 441.45 257.82
  Q 429.22 241.66 421.49 223.01
  Q 419.60 218.43 419.56 215.63
  Q 419.52 211.88 421.19 207.94
  Q 422.64 204.52 423.96 199.38
  Q 425.10 194.98 425.41 190.52
  Q 426.94 168.93 419.56 148.44
  Q 416.90 141.04 412.94 134.32
  Q 408.70 127.13 403.37 122.15
  Q 389.67 109.35 370.30 108.33
  Q 364.65 108.03 361.21 108.30
  Q 356.51 108.67 352.26 110.38
  Q 350.56 111.07 349.51 112.58
  Q 344.80 119.39 341.69 126.94
  Q 340.83 129.02 338.15 134.73
  Q 338.11 134.80 335.60 140.46
  Q 328.33 156.81 314.02 166.58
  C 313.24 167.11 312.72 167.95 312.59 168.89
  Q 308.21 200.08 280.67 213.39
  Q 276.09 215.60 272.20 216.25
  Q 270.53 216.53 269.60 215.12
  Q 262.91 205.02 253.06 198.94
  Q 243.71 193.16 233.34 195.75
  Q 226.49 197.47 222.86 201.71
  Q 218.58 206.72 219.25 214.25
  Q 219.75 219.81 222.46 225.87
  Q 232.01 247.22 247.75 264.54
  Q 241.74 272.46 244.75 282.04
  Q 247.38 291.99 256.69 293.81
  Q 262.14 294.88 268.25 291.46
  Q 274.08 288.67 276.71 282.75
  Q 272.19 298.41 254.53 295.52
  Q 253.92 295.42 254.21 295.97
  Q 259.91 306.53 264.60 316.92
  Q 274.49 338.79 276.29 362.75
  L 275.71 374.75
  Q 272.81 398.06 260.64 417.47
  Q 255.41 425.81 248.36 433.20
  Q 236.59 445.55 221.56 454.06
  Q 184.94 474.79 142.81 469.69
  Q 125.74 467.62 108.00 459.04
  Q 100.38 455.54 107.71 459.50
  Q 124.49 470.41 143.70 475.06
  Q 153.24 477.37 163.46 477.75
  Q 197.53 479.02 226.74 462.05
  Q 235.61 456.89 242.98 450.41
  Q 273.32 423.75 277.00 381.75
  Q 277.40 377.18 277.04 370.25
  L 277.04 370.00
  L 277.71 369.00
  Q 277.77 371.50 278.02 374.00
  Q 280.26 396.66 273.76 418.00
  Q 270.83 427.65 266.06 436.42
  Q 252.54 461.28 227.82 476.33
  Q 202.84 491.55 173.50 493.30
  Q 136.69 495.50 106.19 475.31
  Q 87.00 462.61 75.71 442.55
  Q 69.53 431.56 67.31 419.14
  Q 61.82 388.48 77.31 362.56
  Q 84.73 350.15 96.79 339.69
  C 96.94 339.55 97.16 339.55 97.20 339.69
  Q 97.25 339.84 97.06 340.06
  Q 91.33 347.09 87.96 355.53
  Q 84.59 363.95 84.33 372.84
  Q 83.78 391.03 94.94 406.06
  Q 103.40 417.46 116.46 424.75
  Q 144.40 439.65 175.50 432.29
  Q 200.08 427.09 216.69 409.69
  Q 235.16 390.32 231.99 364.38
  Q 231.04 356.65 227.81 348.43
  Q 224.78 340.70 220.42 333.57
  Q 214.93 324.60 206.69 314.56
  Q 186.14 289.52 166.50 269.21
  Q 163.83 265.91 160.96 262.79
  Q 159.87 261.60 160.86 262.93
  Q 163.37 266.28 166.04 269.50
  Q 185.48 293.61 200.94 314.56
  Q 210.36 327.34 216.22 342.31
  Q 220.40 352.97 221.12 361.61
  Q 222.89 382.73 208.94 399.19
  Q 191.22 420.08 162.50 424.54
  Q 144.06 427.35 126.25 422.04
  Q 124.19 421.34 118.69 418.81
  Q 111.11 415.33 105.91 409.64
  Q 100.43 403.65 98.49 396.26
  Q 95.45 384.67 102.47 373.46
  Q 108.66 363.59 118.42 357.22
  Q 118.93 356.89 118.51 357.25
  Q 114.84 360.41 112.07 364.30
  Q 108.81 368.88 108.37 372.90
  Q 107.62 379.77 113.79 384.70
  Q 118.81 388.71 125.04 390.36
  Q 134.58 392.90 143.96 391.52
  Q 153.47 390.11 161.55 385.56
  Q 171.96 379.70 177.97 368.57
  Q 178.33 367.92 177.91 368.60
  Q 170.76 380.17 158.10 385.23
  Q 141.18 391.98 127.46 380.54
  Q 126.85 380.03 127.25 380.02
  Q 127.41 380.02 127.89 380.38
  Q 135.07 385.79 143.25 385.41
  Q 150.61 385.07 157.18 380.00
  Q 163.48 375.15 166.69 367.69
  Q 175.20 347.89 166.76 327.99
  Q 159.82 311.64 150.53 296.48
  Q 138.25 276.45 128.81 254.94
  Q 119.39 233.44 119.03 208.75
  Q 118.89 199.03 120.63 188.85
  Q 125.41 160.83 139.94 135.19
  Q 140.14 134.82 140.22 135.09
  C 140.25 135.18 140.23 135.29 140.18 135.40
  Q 135.34 146.03 130.25 164.00
  Q 117.83 207.85 134.56 249.44
  Q 140.79 264.91 150.79 281.00
  Q 156.18 289.94 151.25 280.96
  Q 124.44 231.98 132.68 177.29
  Q 134.11 167.82 136.82 157.73
  Q 148.36 114.73 175.81 81.31
  Q 202.46 48.87 243.10 36.59
  Q 252.03 33.89 262.50 31.80
  Q 284.95 27.33 307.99 28.14
  Q 317.61 28.48 324.50 30.25
  Q 329.75 31.60 335.05 35.74
  Q 344.65 43.26 356.50 46.25
  Q 363.65 48.06 380.69 50.06
  Q 395.68 51.83 413.16 59.86
  Q 428.44 66.88 439.43 79.01
  Q 446.28 86.56 450.59 95.53
  Q 461.25 117.67 455.72 143.04
  Q 450.46 167.16 433.25 184.62
  C 432.70 185.18 432.33 185.89 432.19 186.67
  Q 430.30 197.26 427.63 206.96
  Q 425.79 213.65 425.96 216.72
  Q 426.22 221.43 428.44 226.56
  Q 435.62 243.23 443.38 255.22
  Q 446.26 259.68 446.69 261.80
  Q 447.51 265.84 445.19 269.44
  Q 443.25 272.43 438.83 274.73
  Q 435.71 276.35 432.63 278.07
  Q 428.61 280.31 427.40 282.57
  Q 425.21 286.65 428.81 290.94
  Q 430.62 293.09 431.32 295.32
  Q 432.01 297.51 430.86 300.05
  Q 427.68 307.13 420.19 310.19
  C 419.93 310.29 419.84 310.61 419.99 310.84
  Q 422.34 314.46 422.95 318.26
  Q 423.42 321.27 422.03 323.56
  Q 421.19 324.95 418.34 326.75
  Q 416.46 327.94 414.61 329.16
  C 414.33 329.34 414.14 329.62 414.07 329.93
  Q 413.07 334.34 413.94 338.81
  Q 414.20 340.15 414.54 344.43
  Q 414.83 348.02 414.57 350.07
  Q 413.63 357.65 407.75 361.74
  Q 403.97 364.37 398.73 364.77
  Q 394.31 365.10 389.00 364.25
  Q 374.38 361.91 357.19 358.06
  Q 347.99 356.00 339.51 359.64
  Q 336.71 360.84 335.32 362.89
  Q 334.15 364.61 333.57 366.65
  Q 332.81 369.28 332.80 369.32
  Q 320.88 404.28 311.50 440.02
  C 311.39 440.43 311.61 440.86 312.00 441.01
  Q 325.69 446.46 339.73 451.55
  Q 351.14 455.69 360.69 462.06
  Q 370.15 468.37 376.56 478.19
  Q 383.86 489.34 387.23 499.38
  Q 391.56 512.24 393.04 525.75
  Q 393.09 526.14 392.89 526.22
  C 392.74 526.28 392.54 526.13 392.43 525.89
  Q 390.31 521.00 389.31 518.19
  Q 382.00 497.51 370.69 481.56
  Q 358.37 464.19 338.07 457.66
  Q 328.24 454.50 319.25 457.25
  Q 313.84 458.91 310.31 464.31
  Q 307.40 468.77 306.22 475.79
  Q 302.62 497.11 305.86 518.52
  Q 306.12 520.26 305.70 518.70
  Q 297.04 486.54 304.50 452.75
  Q 309.66 429.39 313.54 415.40
  Q 322.89 381.71 333.24 348.33
  Q 333.27 348.23 333.61 346.65
  Q 334.16 344.05 337.19 345.31
  Q 361.48 355.43 387.50 359.51
  Q 391.18 360.09 394.85 359.89
  Q 399.03 359.66 401.92 358.19
  Q 406.77 355.72 408.65 350.56
  Q 409.66 347.76 409.51 343.83
  Q 409.37 340.40 408.65 337.02
  Q 407.82 333.11 408.19 327.94
  Q 408.48 323.84 412.25 322.96
  Z
  M 160.79 126.00
  Q 167.11 108.82 160.54 125.50
  Q 151.85 146.54 147.00 171.00
  Q 140.87 201.90 151.03 230.19
  Q 154.04 238.59 159.51 248.26
  Q 166.94 261.39 176.31 273.22
  Q 177.84 275.16 188.25 287.71
  Q 194.25 294.94 200.46 302.00
  Q 207.93 310.58 215.00 319.50
  Q 221.87 328.16 227.06 337.82
  Q 232.22 347.42 234.51 356.33
  Q 242.09 385.80 223.07 408.68
  Q 217.09 415.86 208.34 422.12
  Q 179.95 442.42 143.52 439.55
  Q 114.39 437.25 95.81 416.44
  Q 85.56 404.96 83.54 388.25
  Q 82.97 379.44 83.00 373.75
  Q 83.00 373.41 82.86 373.32
  C 82.73 373.23 82.54 373.39 82.50 373.63
  L 80.46 388.00
  Q 78.96 409.91 91.75 426.25
  Q 106.44 445.02 130.71 451.16
  Q 139.46 453.37 147.75 453.75
  Q 189.00 455.64 221.31 430.31
  Q 234.04 420.34 242.04 405.00
  Q 248.34 393.16 249.50 379.79
  Q 250.32 374.73 249.75 368.75
  Q 248.43 355.02 243.19 343.06
  Q 235.66 325.91 221.75 308.04
  Q 217.31 302.34 213.04 296.50
  Q 205.98 285.54 198.81 274.64
  Q 189.25 260.10 182.00 244.28
  Q 174.44 227.76 174.27 209.97
  Q 174.18 200.39 176.82 190.22
  Q 181.84 170.85 193.56 155.06
  Q 206.90 137.10 224.80 121.87
  Q 229.03 118.28 240.38 109.32
  Q 257.84 95.54 276.03 82.72
  Q 276.69 82.26 275.95 82.42
  Q 275.51 82.51 274.94 82.94
  Q 272.04 85.10 261.54 91.78
  Q 239.78 105.63 219.28 121.27
  Q 201.26 135.03 186.39 152.13
  Q 171.47 169.31 165.50 188.00
  Q 157.49 213.08 167.83 239.11
  Q 172.44 250.72 178.31 260.19
  Q 187.33 274.72 199.43 289.12
  Q 199.75 289.50 199.38 289.16
  Q 176.74 268.24 162.83 240.71
  Q 150.91 217.13 150.00 192.00
  Q 148.80 158.65 160.79 126.00
  Z
  M 201.25 272.54
  L 206.70 280.78
  C 206.78 280.89 206.89 280.97 207.01 280.99
  Q 207.33 281.03 207.08 280.63
  Q 204.46 276.39 201.75 272.21
  Q 195.06 260.33 191.34 247.23
  Q 188.29 236.50 189.00 227.75
  Q 190.43 210.09 199.69 194.59
  Q 204.38 186.75 211.90 178.79
  Q 223.85 166.16 239.06 156.81
  Q 261.20 143.21 283.75 132.96
  Q 296.18 127.45 308.60 121.90
  Q 309.61 121.44 308.97 121.29
  Q 308.77 121.24 308.55 121.33
  Q 295.94 126.17 283.50 131.46
  Q 265.13 138.56 247.44 147.19
  Q 231.66 154.89 217.51 165.29
  Q 209.10 171.47 200.94 180.69
  Q 188.23 195.03 185.69 213.49
  Q 185.44 215.30 185.44 213.75
  Q 185.40 183.86 204.71 161.48
  Q 216.26 148.09 229.69 138.19
  Q 253.21 120.85 280.31 105.06
  Q 281.61 104.31 282.20 103.66
  Q 282.62 103.19 282.05 103.48
  Q 258.22 115.78 235.38 129.84
  Q 211.96 144.26 196.25 164.75
  Q 176.10 191.03 180.98 223.22
  Q 182.32 232.10 186.16 242.48
  Q 192.01 258.29 201.25 272.54
  Z
  M 188.29 359.75
  Q 186.09 373.04 177.44 382.44
  Q 169.93 390.59 158.96 395.50
  Q 147.69 399.37 135.81 400.28
  Q 135.31 400.32 135.80 400.35
  Q 148.07 401.22 159.75 397.46
  Q 178.04 391.15 185.19 372.94
  Q 187.86 366.12 188.75 359.79
  Q 190.38 347.83 188.29 359.75
  Z
  M 232.99 382.45
  Q 231.02 388.69 228.30 395.01
  Q 227.88 395.99 228.82 395.50
  Q 230.09 394.84 230.66 393.67
  Q 233.16 388.56 234.39 383.00
  Q 234.51 382.47 234.36 382.01
  Q 233.75 380.07 232.99 382.45
  Z
  M 111.59 404.42
  Q 119.52 411.29 129.74 413.79
  Q 147.68 418.16 165.38 412.98
  Q 179.90 408.74 192.13 399.85
  Q 193.19 399.08 192.30 399.62
  Q 171.71 412.18 147.50 413.00
  Q 127.59 413.68 112.13 403.89
  C 111.89 403.74 111.64 403.68 111.44 403.72
  Q 110.93 403.84 111.59 404.42
  Z"
/>
<path fill="#f89a57" d="
  M 213.04 296.50
  L 212.03 299.36
  C 211.94 299.61 211.64 299.75 211.33 299.67
  Q 209.21 299.13 207.14 299.98
  Q 206.70 300.17 206.19 300.11
  Q 203.93 299.84 202.34 301.39
  C 202.14 301.58 201.83 301.63 201.56 301.50
  Q 200.64 301.08 200.46 302.00
  Q 194.25 294.94 188.25 287.71
  Q 177.84 275.16 176.31 273.22
  Q 166.94 261.39 159.51 248.26
  Q 154.04 238.59 151.03 230.19
  Q 140.87 201.90 147.00 171.00
  Q 151.85 146.54 160.54 125.50
  Q 160.84 125.65 160.79 126.00
  Q 148.80 158.65 150.00 192.00
  Q 150.91 217.13 162.83 240.71
  Q 176.74 268.24 199.38 289.16
  Q 199.75 289.50 199.43 289.12
  Q 187.33 274.72 178.31 260.19
  Q 172.44 250.72 167.83 239.11
  Q 157.49 213.08 165.50 188.00
  Q 171.47 169.31 186.39 152.13
  Q 201.26 135.03 219.28 121.27
  Q 239.78 105.63 261.54 91.78
  Q 272.04 85.10 274.94 82.94
  Q 275.51 82.51 275.95 82.42
  Q 276.69 82.26 276.03 82.72
  Q 257.84 95.54 240.38 109.32
  Q 229.03 118.28 224.80 121.87
  Q 206.90 137.10 193.56 155.06
  Q 181.84 170.85 176.82 190.22
  Q 174.18 200.39 174.27 209.97
  Q 174.44 227.76 182.00 244.28
  Q 189.25 260.10 198.81 274.64
  Q 205.98 285.54 213.04 296.50
  Z"
/>
<path fill="#f89c5f" d="
  M 283.50 131.46
  Q 283.91 132.14 283.75 132.96
  Q 261.20 143.21 239.06 156.81
  Q 223.85 166.16 211.90 178.79
  Q 204.38 186.75 199.69 194.59
  Q 190.43 210.09 189.00 227.75
  Q 188.29 236.50 191.34 247.23
  Q 195.06 260.33 201.75 272.21
  L 201.25 272.54
  Q 192.01 258.29 186.16 242.48
  Q 182.32 232.10 180.98 223.22
  Q 176.10 191.03 196.25 164.75
  Q 211.96 144.26 235.38 129.84
  Q 258.22 115.78 282.05 103.48
  Q 282.62 103.19 282.20 103.66
  Q 281.61 104.31 280.31 105.06
  Q 253.21 120.85 229.69 138.19
  Q 216.26 148.09 204.71 161.48
  Q 185.40 183.86 185.44 213.75
  Q 185.44 215.30 185.69 213.49
  Q 188.23 195.03 200.94 180.69
  Q 209.10 171.47 217.51 165.29
  Q 231.66 154.89 247.44 147.19
  Q 265.13 138.56 283.50 131.46
  Z"
/>
<path fill="#625c53" d="
  M 160.79 126.00
  Q 160.84 125.65 160.54 125.50
  Q 167.11 108.82 160.79 126.00
  Z"
/>
<path fill="#fac38e" d="
  M 283.75 132.96
  Q 283.91 132.14 283.50 131.46
  Q 295.94 126.17 308.55 121.33
  Q 308.77 121.24 308.97 121.29
  Q 309.61 121.44 308.60 121.90
  Q 296.18 127.45 283.75 132.96
  Z"
/>
<path fill="#171517" d="
  M 413.35 195.57
  C 413.05 196.00 412.53 196.25 411.96 196.25
  Q 407.32 196.24 402.93 193.50
  Q 395.99 189.18 388.28 186.94
  Q 380.98 184.83 372.54 185.14
  Q 357.26 185.69 343.20 192.29
  Q 342.75 192.50 343.17 192.22
  Q 358.47 182.21 373.81 176.81
  Q 379.42 174.84 386.50 175.50
  Q 393.25 176.13 401.56 180.44
  Q 409.20 184.41 416.38 189.03
  C 416.97 189.41 417.15 190.18 416.77 190.71
  L 413.35 195.57
  Z"
/>
<path fill="#171517" d="
  M 248.81 204.69
  Q 254.72 210.15 256.20 217.73
  Q 256.25 217.98 256.36 218.26
  Q 256.86 219.56 255.99 218.84
  Q 255.82 218.70 255.73 218.48
  Q 252.72 210.82 247.44 206.56
  Q 245.22 204.78 241.94 204.11
  Q 238.80 203.48 236.08 204.22
  Q 229.77 205.96 228.96 213.50
  Q 228.38 219.00 229.94 224.33
  Q 230.34 225.68 229.47 224.57
  Q 225.73 219.77 225.10 213.51
  Q 224.29 205.37 229.86 201.87
  Q 234.06 199.23 239.51 200.06
  Q 244.65 200.84 248.81 204.69
  Z"
/>
<path fill="#171517" d="
  M 409.18 217.14
  Q 398.27 226.39 385.35 223.95
  Q 379.86 222.92 370.27 218.46
  Q 362.96 215.06 356.23 210.53
  Q 351.41 207.28 347.68 202.80
  Q 346.71 201.64 347.93 202.52
  Q 353.06 206.24 359.06 208.69
  Q 365.96 211.49 377.08 213.06
  Q 387.09 214.46 396.54 217.99
  Q 400.60 219.50 403.75 218.50
  Q 406.40 217.66 409.08 216.94
  Q 409.57 216.81 409.18 217.14
  Z"
/>
<path fill="#f89a57" d="
  M 258.24 231.10
  Q 257.09 236.10 261.19 238.81
  Q 262.89 239.94 264.63 241.02
  Q 265.49 241.55 265.68 242.15
  Q 265.97 243.05 265.07 243.48
  Q 264.58 243.71 263.78 243.65
  Q 257.95 243.21 253.94 238.56
  Q 250.98 235.14 251.48 231.23
  Q 251.89 228.05 254.30 226.01
  Q 256.80 223.89 260.40 224.05
  Q 261.72 224.11 260.95 225.18
  Q 258.98 227.88 258.24 231.10
  Z"
/>
<path fill="#fba15d" d="
  M 276.71 282.75
  Q 274.08 288.67 268.25 291.46
  Q 267.74 291.12 266.69 291.44
  Q 257.51 294.21 250.54 287.88
  Q 250.42 287.77 248.21 285.87
  Q 246.43 284.35 245.56 282.44
  Q 245.28 281.81 244.75 282.04
  Q 241.74 272.46 247.75 264.54
  Q 249.51 263.45 251.29 262.38
  Q 253.37 261.12 255.00 260.56
  Q 264.58 257.30 271.81 263.69
  Q 280.12 271.04 276.71 282.75
  Z"
/>
<path fill="#625c53" d="
  M 166.50 269.21
  L 166.04 269.50
  Q 163.37 266.28 160.86 262.93
  Q 159.87 261.60 160.96 262.79
  Q 163.83 265.91 166.50 269.21
  Z"
/>
<path fill="#171517" d="
  M 430.46 269.33
  Q 431.43 270.08 430.48 270.84
  Q 430.07 271.16 429.29 271.28
  Q 423.94 272.13 418.86 273.72
  Q 416.84 274.35 418.43 272.95
  Q 423.03 268.88 429.06 268.92
  Q 429.93 268.92 430.46 269.33
  Z"
/>
<path fill="#fba362" d="
  M 166.50 269.21
  Q 186.14 289.52 206.69 314.56
  Q 214.93 324.60 220.42 333.57
  Q 224.78 340.70 227.81 348.43
  Q 231.04 356.65 231.99 364.38
  Q 235.16 390.32 216.69 409.69
  Q 200.08 427.09 175.50 432.29
  Q 173.44 431.47 171.32 431.74
  Q 168.40 432.11 168.25 432.11
  Q 160.86 432.32 154.48 432.26
  C 153.72 432.25 153.10 431.67 153.05 430.91
  Q 152.84 427.46 154.50 427.25
  C 154.75 427.22 155.03 427.08 155.30 426.85
  L 156.61 425.79
  C 156.80 425.63 157.16 425.60 157.54 425.71
  Q 159.55 426.28 161.25 426.00
  Q 162.49 425.80 162.50 424.54
  Q 191.22 420.08 208.94 399.19
  Q 222.89 382.73 221.12 361.61
  Q 220.40 352.97 216.22 342.31
  Q 210.36 327.34 200.94 314.56
  Q 185.48 293.61 166.04 269.50
  L 166.50 269.21
  Z"
/>
<path fill="#625c53" d="
  M 201.75 272.21
  Q 204.46 276.39 207.08 280.63
  Q 207.33 281.03 207.01 280.99
  C 206.89 280.97 206.78 280.89 206.70 280.78
  L 201.25 272.54
  L 201.75 272.21
  Z"
/>
<path fill="#242424" d="
  M 304.50 316.96
  Q 302.72 317.67 301.71 319.25
  Q 291.83 311.96 285.77 301.26
  Q 279.78 290.68 281.43 278.99
  Q 281.82 276.24 282.25 278.99
  Q 285.59 300.38 301.81 314.44
  Q 304.01 316.34 304.50 316.96
  Z"
/>
<path fill="#625c53" d="
  M 150.79 281.00
  L 151.25 280.96
  Q 156.18 289.94 150.79 281.00
  Z"
/>
<path fill="#fefdfe" d="
  M 244.75 282.04
  Q 245.28 281.81 245.56 282.44
  Q 246.43 284.35 248.21 285.87
  Q 250.42 287.77 250.54 287.88
  Q 257.51 294.21 266.69 291.44
  Q 267.74 291.12 268.25 291.46
  Q 262.14 294.88 256.69 293.81
  Q 247.38 291.99 244.75 282.04
  Z"
/>
<path fill="#f89c5f" d="
  M 426.46 296.25
  Q 422.51 305.93 412.50 309.04
  L 406.21 301.75
  Q 409.62 300.11 416.19 297.44
  Q 421.31 295.35 426.46 296.25
  Z"
/>
<path fill="#fba262" d="
  M 213.04 296.50
  Q 217.31 302.34 221.75 308.04
  Q 235.66 325.91 243.19 343.06
  Q 248.43 355.02 249.75 368.75
  Q 250.32 374.73 249.50 379.79
  Q 248.40 380.44 248.19 382.19
  Q 247.09 391.17 242.68 400.97
  Q 241.81 402.90 242.04 405.00
  Q 234.04 420.34 221.31 430.31
  Q 189.00 455.64 147.75 453.75
  Q 139.46 453.37 130.71 451.16
  Q 106.44 445.02 91.75 426.25
  Q 78.96 409.91 80.46 388.00
  Q 80.41 389.74 82.01 389.58
  Q 82.28 389.56 82.99 389.61
  Q 83.91 389.69 83.54 388.25
  Q 85.56 404.96 95.81 416.44
  Q 114.39 437.25 143.52 439.55
  Q 179.95 442.42 208.34 422.12
  Q 217.09 415.86 223.07 408.68
  Q 242.09 385.80 234.51 356.33
  Q 232.22 347.42 227.06 337.82
  Q 221.87 328.16 215.00 319.50
  Q 207.93 310.58 200.46 302.00
  Q 200.64 301.08 201.56 301.50
  C 201.83 301.63 202.14 301.58 202.34 301.39
  Q 203.93 299.84 206.19 300.11
  Q 206.70 300.17 207.14 299.98
  Q 209.21 299.13 211.33 299.67
  C 211.64 299.75 211.94 299.61 212.03 299.36
  L 213.04 296.50
  Z"
/>
<path fill="#f5924e" d="
  M 406.21 301.75
  L 412.50 309.04
  L 412.50 309.46
  Q 402.56 310.95 392.50 310.75
  Q 391.36 310.73 390.25 311.04
  L 385.92 307.05
  Q 384.84 306.05 386.32 306.07
  Q 396.51 306.22 406.21 301.75
  Z"
/>
<path fill="#fba362" d="
  M 412.50 309.46
  Q 417.23 310.67 417.85 315.57
  Q 418.67 322.02 412.25 322.96
  Q 411.44 322.71 410.59 322.70
  Q 409.59 322.69 408.97 322.45
  Q 398.63 318.37 390.25 311.04
  Q 391.36 310.73 392.50 310.75
  Q 402.56 310.95 412.50 309.46
  Z"
/>
<path fill="#f89a57" d="
  M 304.50 316.96
  L 322.79 329.75
  Q 322.07 331.51 320.50 332.54
  Q 319.55 332.54 318.72 332.05
  Q 310.40 327.17 302.44 320.31
  Q 301.83 319.79 301.71 319.25
  Q 302.72 317.67 304.50 316.96
  Z"
/>
<path fill="#242424" d="
  M 322.79 329.75
  Q 350.12 346.28 380.29 356.75
  L 380.21 357.00
  Q 361.75 352.44 341.19 343.56
  Q 329.00 338.30 320.50 332.54
  Q 322.07 331.51 322.79 329.75
  Z"
/>
<path fill="#625c53" d="
  M 188.75 359.79
  L 188.29 359.75
  Q 190.38 347.83 188.75 359.79
  Z"
/>
<path fill="#625c53" d="
  M 380.29 356.75
  Q 381.23 356.72 382.05 357.18
  Q 382.42 357.39 382.00 357.46
  Q 380.83 357.65 380.21 357.00
  L 380.29 356.75
  Z"
/>
<path fill="#f89c5f" d="
  M 188.29 359.75
  L 188.75 359.79
  Q 187.86 366.12 185.19 372.94
  Q 178.04 391.15 159.75 397.46
  Q 159.81 396.30 158.96 395.50
  Q 169.93 390.59 177.44 382.44
  Q 186.09 373.04 188.29 359.75
  Z"
/>
<path fill="#fac38e" d="
  M 276.29 362.75
  Q 276.42 365.09 277.46 367.00
  Q 276.63 368.36 277.04 370.00
  L 277.04 370.25
  Q 276.97 372.37 276.97 374.50
  Q 276.97 376.22 275.71 374.75
  L 276.29 362.75
  Z"
/>
<path fill="#fac38e" d="
  M 277.46 367.00
  L 277.71 369.00
  L 277.04 370.00
  Q 276.63 368.36 277.46 367.00
  Z"
/>
<path fill="#fba262" d="
  M 277.04 370.25
  Q 277.40 377.18 277.00 381.75
  Q 273.32 423.75 242.98 450.41
  Q 235.61 456.89 226.74 462.05
  Q 197.53 479.02 163.46 477.75
  Q 153.24 477.37 143.70 475.06
  Q 124.49 470.41 107.71 459.50
  L 108.00 459.04
  Q 125.74 467.62 142.81 469.69
  Q 184.94 474.79 221.56 454.06
  Q 236.59 445.55 248.36 433.20
  Q 255.41 425.81 260.64 417.47
  Q 272.81 398.06 275.71 374.75
  Q 276.97 376.22 276.97 374.50
  Q 276.97 372.37 277.04 370.25
  Z"
/>
<path fill="#fac38e" d="
  M 83.54 388.25
  Q 83.91 389.69 82.99 389.61
  Q 82.28 389.56 82.01 389.58
  Q 80.41 389.74 80.46 388.00
  L 82.50 373.63
  C 82.54 373.39 82.73 373.23 82.86 373.32
  Q 83.00 373.41 83.00 373.75
  Q 82.97 379.44 83.54 388.25
  Z"
/>
<path fill="#fac38e" d="
  M 249.50 379.79
  Q 248.34 393.16 242.04 405.00
  Q 241.81 402.90 242.68 400.97
  Q 247.09 391.17 248.19 382.19
  Q 248.40 380.44 249.50 379.79
  Z"
/>
<path fill="#242424" d="
  M 232.99 382.45
  Q 233.75 380.07 234.36 382.01
  Q 234.51 382.47 234.39 383.00
  Q 233.16 388.56 230.66 393.67
  Q 230.09 394.84 228.82 395.50
  Q 227.88 395.99 228.30 395.01
  Q 231.02 388.69 232.99 382.45
  Z"
/>
<path fill="#fba362" d="
  M 158.96 395.50
  Q 159.81 396.30 159.75 397.46
  Q 148.07 401.22 135.80 400.35
  Q 135.31 400.32 135.81 400.28
  Q 147.69 399.37 158.96 395.50
  Z"
/>
<path fill="#f89c5f" d="
  M 111.59 404.42
  Q 110.93 403.84 111.44 403.72
  C 111.64 403.68 111.89 403.74 112.13 403.89
  Q 127.59 413.68 147.50 413.00
  Q 171.71 412.18 192.30 399.62
  Q 193.19 399.08 192.13 399.85
  Q 179.90 408.74 165.38 412.98
  Q 147.68 418.16 129.74 413.79
  Q 119.52 411.29 111.59 404.42
  Z"
/>
<path fill="#fac38e" d="
  M 126.25 422.04
  Q 144.06 427.35 162.50 424.54
  Q 162.49 425.80 161.25 426.00
  Q 159.55 426.28 157.54 425.71
  C 157.16 425.60 156.80 425.63 156.61 425.79
  L 155.30 426.85
  C 155.03 427.08 154.75 427.22 154.50 427.25
  Q 152.84 427.46 153.05 430.91
  C 153.10 431.67 153.72 432.25 154.48 432.26
  Q 160.86 432.32 168.25 432.11
  Q 168.40 432.11 171.32 431.74
  Q 173.44 431.47 175.50 432.29
  Q 144.40 439.65 116.46 424.75
  L 116.36 421.81
  C 116.35 421.46 116.48 421.16 116.70 421.00
  Q 118.01 420.06 119.20 421.08
  C 119.47 421.31 119.77 421.45 120.05 421.48
  Q 122.79 421.78 125.13 423.17
  C 125.48 423.38 125.84 423.42 126.03 423.29
  Q 126.50 422.97 126.25 422.04
  Z"
/>
<path fill="#625c53" d="
  M 108.00 459.04
  L 107.71 459.50
  Q 100.38 455.54 108.00 459.04
  Z"
/>
</svg>
